<?xml version="1.0" encoding="UTF-8"?>
<svg id="Layer_2" data-name="Layer 2" xmlns="http://www.w3.org/2000/svg" viewBox="0 0 274.61 36.58">
  <defs>
    <style>
      .cls-1 {
        stroke-width: 0px;
      }
    </style>
  </defs>
  <g id="Layer_1-2" data-name="Layer 1">
    <g>
      <g>
        <path class="cls-1" d="M90.28,15.83c-3.52,6.49-5.93,10.43-9.72,10.43s-6.19-3.94-9.71-10.43C67.15,9.02,62.58.6,53.08.04c-.55-.03-1.01.43-1.01.98v8.41c0,.47.34.88.81.96,3.33.53,5.64,4.35,8.9,10.37,3.83,7.05,8.58,15.82,18.78,15.82s14.95-8.77,18.78-15.82c3.26-6.01,5.57-9.84,8.91-10.37.47-.07.81-.48.81-.96V1.02c0-.55-.46-1.01-1.01-.98-9.5.56-14.07,8.98-17.77,15.79Z"/>
        <path class="cls-1" d="M165.32,0h-9.33c-10.19,0-14.95,8.77-18.78,15.82-3.52,6.49-5.93,10.43-9.72,10.43h0s-6.33,0-6.33,0c-.54,0-.98.44-.98.98v8.35c0,.54.44.98.98.98h6.33c10.19,0,14.95-8.77,18.78-15.82,3.52-6.49,5.93-10.43,9.71-10.43h0s9.33,0,9.33,0c.54,0,.98-.44.98-.98V.99c0-.54-.44-.98-.98-.98Z"/>
        <rect class="cls-1" x="103.92" y="26.25" width="10.31" height="10.31" rx=".98" ry=".98"/>
        <rect class="cls-1" x="155.99" y="26.25" width="10.31" height="10.31" rx=".98" ry=".98"/>
        <g>
          <rect class="cls-1" y=".02" width="10.31" height="36.56" rx=".98" ry=".98"/>
          <path class="cls-1" d="M35.41,8.59c3.47-1.89,7.36-4.01,10.41-6.88.64-.6.19-1.68-.69-1.68h-14.56c-.65,0-1.28.16-1.85.47-6.66,3.68-14.05,8.45-14.05,17.81s7.38,14.13,14.05,17.81c.57.31,1.2.47,1.85.47h14.56c.88,0,1.33-1.08.69-1.68-3.05-2.88-6.94-5-10.41-6.88-6.49-3.52-10.43-5.93-10.43-9.72s3.94-6.19,10.43-9.71Z"/>
        </g>
      </g>
      <g>
        <g>
          <path class="cls-1" d="M207.56,0h2.71v7.05h.08l7.44-7.05h3.36l-7.09,6.68,7.29,9.14h-3.28l-5.98-7.5-1.82,1.46v6.04h-2.71V0Z"/>
          <path class="cls-1" d="M222.35,0h2.97l5.08,12.85h.1l5.06-12.85h2.89l-6.45,15.82h-3.2l-6.45-15.82Z"/>
          <path class="cls-1" d="M206.55,31.45h2.81c.18,1.89,1.66,2.89,4.26,2.89,2.29,0,3.52-.78,3.52-2.34,0-1.19-.8-1.91-2.46-2.27l-3.12-.62c-2.83-.57-4.3-2.01-4.3-4.24,0-2.83,2.29-4.57,5.96-4.57s6.15,1.8,6.46,4.84h-2.81c-.39-1.8-1.66-2.66-3.81-2.66-1.97,0-3.14.78-3.14,2.15,0,1.07.8,1.78,2.32,2.09l3.26.66c2.91.59,4.3,2.03,4.3,4.41,0,3.03-2.3,4.79-6.27,4.79s-6.74-1.91-6.97-5.14Z"/>
          <path class="cls-1" d="M222.76,27.3h-1.35v-2.68h2.77v1.86h.9c.74-1.33,2.03-2.07,3.93-2.07s3.16.7,3.96,2.11h.06c.88-1.43,2.19-2.11,4.02-2.11,2.95,0,4.75,1.82,4.75,4.77v7.17h-2.66v-6.7c0-1.91-.94-2.89-2.77-2.89s-2.77,1-2.77,2.89v6.7h-2.66v-6.7c0-1.89-.94-2.89-2.79-2.89s-2.73.98-2.73,2.89v6.7h-2.66v-9.04Z"/>
          <path class="cls-1" d="M243.87,32.95c0-2.29,1.6-3.57,4.53-3.57h3.71v-.49c0-1.56-.9-2.34-2.66-2.34-1.54,0-2.38.51-2.7,1.62h-2.66c.45-2.42,2.36-3.77,5.37-3.77,3.34,0,5.18,1.58,5.18,4.53v4.75h1.27v2.68h-2.75v-1.86h-.82c-.8,1.29-2.21,2.07-4.14,2.07-2.7,0-4.34-1.45-4.34-3.61ZM252.11,31.6v-.37h-3.57c-1.39,0-2.15.55-2.15,1.6s.84,1.66,2.21,1.66c1.97,0,3.52-1.29,3.52-2.89Z"/>
          <path class="cls-1" d="M258.47,27.3h-1.35v-2.68h2.77v2.25h.82c.62-1.52,2.07-2.36,3.85-2.36h.98v2.29h-1.09c-2.23,0-3.36,1.39-3.36,3.52v6.04h-2.62v-9.04Z"/>
          <path class="cls-1" d="M268.78,34.14v-7.44h-2.11v-2.07h2.13v-3.52h2.62v3.52h2.91v2.07h-2.89v7.56h3.18v2.09h-3.57c-1.45,0-2.27-.72-2.27-2.21Z"/>
        </g>
        <rect class="cls-1" x="186.44" width="1" height="36.58"/>
      </g>
    </g>
  </g>
</svg>