<?xml version="1.0" encoding="UTF-8"?>
<svg id="Layer_2" data-name="Layer 2" xmlns="http://www.w3.org/2000/svg" viewBox="0 0 166.31 36.58">
  <defs>
    <style>
      .cls-1 {
        fill: #fff;
        stroke-width: 0px;
      }
    </style>
  </defs>
  <g id="Layer_1-2" data-name="Layer 1">
    <g>
      <path class="cls-1" d="M90.28,15.82c-3.52,6.49-5.93,10.43-9.72,10.43s-6.19-3.94-9.71-10.43C67.15,9.01,62.58.59,53.08.03c-.55-.03-1.01.43-1.01.98v8.41c0,.47.34.88.81.96,3.33.53,5.64,4.35,8.9,10.37,3.83,7.05,8.58,15.82,18.78,15.82s14.95-8.77,18.78-15.82c3.26-6.01,5.57-9.84,8.91-10.37.47-.07.81-.48.81-.96V1.01c0-.55-.46-1.01-1.01-.98-9.5.56-14.07,8.98-17.77,15.79Z"/>
      <path class="cls-1" d="M165.32,0h-9.33c-10.19,0-14.95,8.77-18.78,15.82-3.52,6.49-5.93,10.43-9.72,10.43h0s-6.33,0-6.33,0c-.54,0-.98.44-.98.98v8.35c0,.54.44.98.98.98h6.33c10.19,0,14.95-8.77,18.78-15.82,3.52-6.49,5.93-10.43,9.71-10.43h0s9.33,0,9.33,0c.54,0,.98-.44.98-.98V.98c0-.54-.44-.98-.98-.98Z"/>
      <rect class="cls-1" x="103.92" y="26.25" width="10.31" height="10.31" rx=".98" ry=".98"/>
      <rect class="cls-1" x="155.99" y="26.25" width="10.31" height="10.31" rx=".98" ry=".98"/>
      <g>
        <rect class="cls-1" y=".01" width="10.31" height="36.56" rx=".98" ry=".98"/>
        <path class="cls-1" d="M35.41,8.58c3.47-1.89,7.36-4.01,10.41-6.88.64-.6.19-1.68-.69-1.68h-14.56c-.65,0-1.28.16-1.85.47-6.66,3.68-14.05,8.45-14.05,17.81s7.38,14.13,14.05,17.81c.57.31,1.2.47,1.85.47h14.56c.88,0,1.33-1.08.69-1.68-3.05-2.88-6.94-5-10.41-6.88-6.49-3.52-10.43-5.93-10.43-9.72s3.94-6.19,10.43-9.71Z"/>
      </g>
    </g>
  </g>
</svg>